<?xml version="1.0" encoding="iso-8859-1"?>
<!-- Generator: Adobe Illustrator 16.0.0, SVG Export Plug-In . SVG Version: 6.00 Build 0)  -->
<!DOCTYPE svg PUBLIC "-//W3C//DTD SVG 1.1//EN" "http://www.w3.org/Graphics/SVG/1.1/DTD/svg11.dtd">
<svg version="1.1" id="Capa_1" xmlns="http://www.w3.org/2000/svg" xmlns:xlink="http://www.w3.org/1999/xlink" x="0px" y="0px"
	 width="876.764px" height="876.764px" viewBox="0 0 876.764 876.764" style="enable-background:new 0 0 876.764 876.764;"
	 xml:space="preserve">
<g>
	<g>
		<path d="M390.058,295.325L144.48,218.541c-6.017-1.881-12.573-0.04-16.731,4.703c-3.798,4.321-93.329,107.012-118.673,188.068
			c-31.385,100.378,21.208,207.28,117.934,245.044l-23.456,75.018L33.618,708.63c-8.398-2.625-17.333,2.053-19.959,10.451
			c-2.626,8.397,2.053,17.333,10.451,19.959l176.109,56.9c8.397,2.626,17.333-2.053,19.959-10.45s-2.053-17.333-10.451-19.959
			l-75.768-24.652l23.544-75.3c99.793,21.697,201.675-36.009,232.661-135.111c26.684-85.339,11.612-216.282,10.957-221.812
			C400.388,302.417,396.053,297.199,390.058,295.325z M370.516,481.608l-338.232,0.134c-1.36-20.04,0.855-40.637,7.198-60.925
			c19.544-62.49,84.475-143.488,105.558-168.729l225.464,70.495C372.975,349.571,381.215,419.085,370.516,481.608z"/>
		<path d="M867.688,410.311c-25.344-81.056-114.875-183.747-118.672-188.068c-4.158-4.742-10.715-6.584-16.732-4.703
			l-245.578,76.784c-5.994,1.875-10.329,7.093-11.063,13.331c-0.655,5.531-15.725,136.474,10.958,221.812
			c30.986,99.102,132.868,156.808,232.66,135.111l23.545,75.3l-75.77,24.651c-8.396,2.626-13.074,11.562-10.449,19.959
			c2.625,8.397,11.561,13.076,19.959,10.451l176.107-56.9c8.398-2.626,13.078-11.562,10.451-19.959
			c-2.625-8.397-11.561-13.076-19.959-10.451l-69.936,22.743l-23.455-75.018C846.48,617.592,899.072,510.689,867.688,410.311z
			 M506.248,480.608c-10.697-62.523-2.459-132.038,0.013-159.024l225.464-70.495c21.082,25.241,86.014,106.237,105.557,168.729
			c6.344,20.288,8.559,40.885,7.199,60.925L506.248,480.608z"/>
		<path d="M504.116,215.097c3.88-5.71,2.396-13.484-3.312-17.364c-5.711-3.881-13.485-2.396-17.364,3.313l-33.056,48.646
			c-3.88,5.71-2.396,13.484,3.312,17.364c2.151,1.462,4.597,2.162,7.015,2.162c4.001,0,7.933-1.917,10.351-5.476L504.116,215.097z"
			/>
		<path d="M418.442,80.094c-0.046-0.001-0.09-0.001-0.136-0.001c-6.841,0-12.424,5.51-12.496,12.367l-1.544,145.206
			c-0.073,6.903,5.463,12.559,12.366,12.632c0.045,0.001,0.09,0.001,0.136,0.001c6.841,0,12.424-5.51,12.496-12.367l1.544-145.206
			C430.881,85.822,425.345,80.167,418.442,80.094z"/>
		<path d="M363.394,242.653c2.402,0,4.831-0.691,6.974-2.135c5.727-3.858,7.238-11.627,3.382-17.352l-52.562-77.999
			c-3.857-5.725-11.625-7.238-17.352-3.381c-5.727,3.858-7.238,11.627-3.382,17.352l52.562,77.999
			C355.43,240.72,359.375,242.653,363.394,242.653z"/>
	</g>
</g>
<g>
</g>
<g>
</g>
<g>
</g>
<g>
</g>
<g>
</g>
<g>
</g>
<g>
</g>
<g>
</g>
<g>
</g>
<g>
</g>
<g>
</g>
<g>
</g>
<g>
</g>
<g>
</g>
<g>
</g>
</svg>
